<?xml version="1.0" encoding="utf-8"?>
<!-- Generator: Adobe Illustrator 15.1.0, SVG Export Plug-In . SVG Version: 6.00 Build 0)  -->
<!DOCTYPE svg PUBLIC "-//W3C//DTD SVG 1.1//EN" "http://www.w3.org/Graphics/SVG/1.1/DTD/svg11.dtd">
<svg version="1.1" id="圖層_1" xmlns="http://www.w3.org/2000/svg" xmlns:xlink="http://www.w3.org/1999/xlink" x="0px" y="0px"
	 width="256.633px" height="55px" viewBox="0 0 256.633 55" enable-background="new 0 0 256.633 55" xml:space="preserve">
<g>
	<path id="Path_78" fill="#0051BD" d="M120.002,28.791H96.127c-0.947-0.006-1.71-0.778-1.705-1.726V2.908
		c-0.005-0.947,0.758-1.719,1.705-1.725h23.875c0.947,0.006,1.71,0.778,1.705,1.725v24.158
		C121.712,28.013,120.949,28.785,120.002,28.791z"/>
	<path id="Path_79" fill="#00ECCF" d="M129.656,40.929h-16.113c-2.668-0.004-4.831-2.166-4.834-4.834V19.981
		c0.003-2.668,2.166-4.831,4.834-4.834h16.113c2.668,0.003,4.83,2.166,4.834,4.834v16.113
		C134.486,38.763,132.324,40.925,129.656,40.929z"/>
	<path id="Path_80" fill="#00CAB1" d="M129.656,15.147h-7.949v25.781h7.949c2.668-0.004,4.83-2.166,4.834-4.834V19.981
		C134.486,17.313,132.324,15.151,129.656,15.147z"/>
	<path id="Path_81" fill="#D11372" d="M136.531,56.183c-7.119,0-12.891-5.771-12.891-12.891c0-7.12,5.771-12.892,12.891-12.892
		s12.891,5.771,12.891,12.892l0,0C149.414,50.407,143.648,56.175,136.531,56.183z"/>
</g>
</svg>
