<?xml version="1.0" encoding="utf-8"?>
<!-- Generator: Adobe Illustrator 15.1.0, SVG Export Plug-In . SVG Version: 6.00 Build 0)  -->
<!DOCTYPE svg PUBLIC "-//W3C//DTD SVG 1.1//EN" "http://www.w3.org/Graphics/SVG/1.1/DTD/svg11.dtd">
<svg version="1.1" id="圖層_1" xmlns="http://www.w3.org/2000/svg" xmlns:xlink="http://www.w3.org/1999/xlink" x="0px" y="0px"
	 width="97px" height="24px" viewBox="0 0 97 24" enable-background="new 0 0 97 24" xml:space="preserve">
<title>Regal Logo</title>
<desc>Created with Sketch.</desc>
<g>
	<g>
		<path fill="#FFFFFF" d="M25.606,3.288c-0.205-0.605-0.787-1.005-1.438-1.005c-0.034,0-0.068,0-0.103,0h-1.131l-0.353-1.107
			C22.422,0.49,21.805,0,21.109,0l0,0c-0.695,0-1.313,0.49-1.473,1.188l-0.354,1.096h-1.119c-0.034,0-0.069,0-0.103,0
			c-0.651,0-1.233,0.399-1.438,1.005c-0.217,0.639,0.045,1.335,0.639,1.688l0.993,0.595l-0.457,1.416
			c-0.262,0.662-0.044,1.427,0.514,1.849c0.262,0.195,0.583,0.297,0.891,0.297c0.354,0,0.696-0.125,0.981-0.365l0.925-0.799
			l0.926,0.799c0.285,0.24,0.626,0.365,0.981,0.365c0.308,0,0.629-0.102,0.891-0.297c0.571-0.422,0.776-1.187,0.514-1.849
			l-0.446-1.416l0.994-0.595C25.551,4.623,25.813,3.927,25.606,3.288z M21.109,5.708c-0.627,0-1.142-0.514-1.142-1.142
			c0-0.627,0.514-1.142,1.142-1.142c0.628,0,1.142,0.515,1.142,1.142C22.251,5.194,21.737,5.708,21.109,5.708z"/>
		<path fill="#FFFFFF" d="M15.96,9.715c-0.49-0.49-1.074-0.832-1.701-1.061V6.85h-1.142v1.576c-0.125-0.012-0.263-0.035-0.388-0.035
			c-1.164,0-2.341,0.445-3.231,1.336c-0.183,0.183-0.343,0.388-0.49,0.605L7.409,9.727c-1.781-0.628-3.744,0.309-4.373,2.078l0,0
			c-0.308,0.856-0.263,1.793,0.137,2.614c0.262,0.548,0.662,0.993,1.142,1.324c-0.434,1.542-0.068,3.255,1.142,4.464
			c1.21,1.21,2.934,1.576,4.464,1.142c0.331,0.479,0.776,0.879,1.323,1.143c0.479,0.229,0.971,0.342,1.474,0.342
			c0.388,0,0.776-0.069,1.153-0.194l0,0c1.782-0.627,2.717-2.591,2.078-4.395l-0.594-1.565c0.207-0.147,0.412-0.308,0.605-0.49
			c0.992-0.992,1.416-2.328,1.301-3.619h1.564v-1.142h-1.815C16.794,10.8,16.451,10.218,15.96,9.715z M5.891,14.031
			c-0.285-0.103-0.513-0.31-0.651-0.582c-0.136-0.274-0.147-0.583-0.044-0.869c0.216-0.593,0.867-0.9,1.438-0.695l3.608,1.358
			C8.928,13.929,7.238,14.511,5.891,14.031z M13.106,20.48c-0.286,0.104-0.593,0.092-0.868-0.045
			c-0.274-0.126-0.479-0.365-0.582-0.65c-0.481-1.347,0.103-3.026,0.798-4.338l1.347,3.573C14.007,19.613,13.7,20.275,13.106,20.48z
			 M14.488,14.385l-0.697-1.838c0-0.011-0.011-0.023-0.022-0.034c-0.023-0.046-0.047-0.092-0.069-0.138
			c-0.022-0.045-0.045-0.08-0.081-0.125c-0.033-0.034-0.068-0.068-0.103-0.103c-0.033-0.035-0.068-0.068-0.103-0.104
			c-0.033-0.034-0.08-0.057-0.125-0.079c-0.046-0.023-0.08-0.058-0.138-0.069c-0.011,0-0.022-0.011-0.033-0.021l-1.826-0.687
			c0.41-0.33,0.901-0.524,1.438-0.524c0.604,0,1.188,0.239,1.61,0.673C15.172,12.17,15.218,13.483,14.488,14.385z"/>
	</g>
</g>
<g>
	<path fill="#FFFFFF" d="M48.289,19.414c0,0.283-0.012,0.521-0.036,0.717s-0.062,0.354-0.11,0.477s-0.109,0.207-0.183,0.256
		s-0.153,0.074-0.241,0.074H36.541c-0.391,0-0.691-0.113-0.901-0.338s-0.315-0.551-0.315-0.98v-0.645
		c0-0.195,0.012-0.374,0.037-0.535s0.066-0.324,0.125-0.49s0.144-0.348,0.256-0.543s0.251-0.43,0.417-0.703l7.354-11.66h-7.295
		c-0.117,0-0.217-0.026-0.3-0.08s-0.151-0.139-0.205-0.256s-0.093-0.273-0.117-0.469s-0.037-0.43-0.037-0.703
		c0-0.293,0.012-0.54,0.037-0.74s0.063-0.361,0.117-0.483s0.122-0.208,0.205-0.257s0.183-0.072,0.3-0.072h10.473
		c0.4,0,0.696,0.102,0.887,0.307s0.286,0.494,0.286,0.865v0.717c0,0.264-0.013,0.491-0.037,0.682s-0.068,0.376-0.132,0.557
		s-0.149,0.366-0.257,0.557s-0.244,0.418-0.41,0.682l-7.236,11.498h7.925c0.185,0,0.326,0.117,0.424,0.352
		S48.289,18.838,48.289,19.414z"/>
	<path fill="#FFFFFF" d="M76.785,20.366c0,0.098-0.027,0.186-0.08,0.264c-0.055,0.078-0.152,0.141-0.293,0.189
		c-0.143,0.049-0.33,0.088-0.564,0.117s-0.531,0.045-0.893,0.045c-0.352,0-0.645-0.016-0.879-0.045s-0.42-0.068-0.557-0.117
		s-0.234-0.111-0.293-0.189s-0.088-0.166-0.088-0.264V4.941h-0.029l-5.494,15.409c-0.039,0.127-0.102,0.232-0.189,0.315
		s-0.209,0.149-0.359,0.198c-0.152,0.049-0.344,0.08-0.578,0.095s-0.518,0.022-0.85,0.022s-0.615-0.013-0.85-0.037
		s-0.428-0.063-0.578-0.117c-0.152-0.054-0.271-0.119-0.359-0.197s-0.146-0.172-0.176-0.279L58.373,4.941h-0.029v15.425
		c0,0.098-0.027,0.186-0.08,0.264c-0.055,0.078-0.154,0.141-0.301,0.189s-0.336,0.088-0.564,0.117
		c-0.23,0.029-0.525,0.045-0.887,0.045c-0.352,0-0.645-0.016-0.879-0.045s-0.422-0.068-0.563-0.117
		c-0.143-0.049-0.24-0.111-0.293-0.189c-0.055-0.078-0.082-0.166-0.082-0.264V3.477c0-0.498,0.133-0.879,0.396-1.143
		s0.615-0.396,1.055-0.396h2.52c0.449,0,0.834,0.037,1.156,0.11s0.602,0.195,0.836,0.366s0.43,0.396,0.586,0.674
		s0.293,0.623,0.41,1.033l4.102,11.294h0.059L70.063,4.15c0.127-0.41,0.266-0.758,0.418-1.041c0.15-0.283,0.326-0.512,0.527-0.688
		c0.199-0.176,0.436-0.301,0.709-0.374s0.592-0.11,0.953-0.11h2.592c0.264,0,0.492,0.035,0.682,0.104
		c0.191,0.068,0.346,0.168,0.469,0.3c0.121,0.132,0.215,0.293,0.279,0.483c0.063,0.19,0.094,0.408,0.094,0.652V20.366z"/>
	<path fill="#FFFFFF" d="M94.164,19.37c0,0.293-0.012,0.539-0.037,0.739c-0.023,0.2-0.061,0.366-0.109,0.498
		s-0.109,0.228-0.184,0.286c-0.072,0.059-0.158,0.088-0.256,0.088h-8.686c-0.322,0-0.594-0.096-0.814-0.286
		c-0.219-0.19-0.328-0.501-0.328-0.931V2.553c0-0.098,0.031-0.186,0.094-0.264c0.064-0.078,0.17-0.141,0.316-0.189
		s0.344-0.088,0.592-0.117c0.25-0.029,0.561-0.045,0.932-0.045c0.381,0,0.693,0.016,0.938,0.045s0.439,0.068,0.586,0.117
		s0.25,0.111,0.314,0.189c0.063,0.078,0.096,0.166,0.096,0.264v15.249h5.961c0.098,0,0.184,0.027,0.256,0.081
		c0.074,0.054,0.135,0.142,0.184,0.264s0.086,0.283,0.109,0.483C94.152,18.83,94.164,19.077,94.164,19.37z"/>
</g>
<path fill="#FFFFFF" d="M30.437,12.895c-0.13-0.385-0.5-0.639-0.913-0.639c-0.022,0-0.043,0-0.065,0H28.74l-0.225-0.703
	c-0.101-0.435-0.493-0.746-0.935-0.746l0,0c-0.442,0-0.833,0.312-0.935,0.754l-0.225,0.695h-0.71c-0.021,0-0.044,0-0.065,0
	c-0.414,0-0.783,0.254-0.914,0.639c-0.137,0.405,0.029,0.847,0.406,1.071l0.631,0.378l-0.29,0.898
	c-0.167,0.421-0.028,0.906,0.326,1.174c0.166,0.124,0.37,0.188,0.565,0.188c0.225,0,0.441-0.079,0.623-0.231l0.588-0.508
	l0.587,0.508c0.181,0.152,0.398,0.231,0.623,0.231c0.196,0,0.399-0.064,0.565-0.188c0.363-0.268,0.493-0.753,0.327-1.174
	L29.4,14.344l0.631-0.378C30.4,13.741,30.567,13.3,30.437,12.895z M27.581,14.431c-0.398,0-0.725-0.326-0.725-0.725
	s0.327-0.726,0.725-0.726s0.725,0.327,0.725,0.726S27.979,14.431,27.581,14.431z"/>
</svg>
