<?xml version="1.0" encoding="utf-8"?>
<!-- Generator: Adobe Illustrator 15.1.0, SVG Export Plug-In . SVG Version: 6.00 Build 0)  -->
<!DOCTYPE svg PUBLIC "-//W3C//DTD SVG 1.1//EN" "http://www.w3.org/Graphics/SVG/1.1/DTD/svg11.dtd">
<svg version="1.1" id="圖層_1" xmlns="http://www.w3.org/2000/svg" xmlns:xlink="http://www.w3.org/1999/xlink" x="0px" y="0px"
	 width="720.5px" height="1281px" viewBox="0 0 720.5 1281" enable-background="new 0 0 720.5 1281" xml:space="preserve">
<image overflow="visible" width="720" height="1280" xlink:href="bg2.png" >
</image>
<g>
	<path fill="#93DB24" d="M80,1214.247v1.748c-0.189-7.109-3.866-10.665-11.029-10.665H11.029c-7.163,0-10.84,3.556-11.029,10.665
		v-1.748C0,1206.749,3.677,1203,11.029,1203H68.97C76.323,1203,80,1206.749,80,1214.247z"/>
	<path fill="#80BE1F" d="M0,1215.995c0.189-7.109,3.866-10.665,11.029-10.665H68.97c7.163,0,10.84,3.556,11.029,10.665v14.396
		l-13.314-13.401l-13.371,13.401l-13.257-13.401l-13.372,13.401l-13.371-13.401L0,1230.391V1215.995z"/>
	<path fill="#BB8044" d="M80,1230.391v5.827l-13.314-13.401l-13.371,13.401l-13.257-13.401l-13.372,13.401l-13.371-13.401
		L0,1236.218v-5.827l13.314-13.401l13.371,13.401l13.372-13.401l13.257,13.401l13.371-13.401L80,1230.391z"/>
	<path fill="#C58F5C" d="M80,1236.218v11.656l-13.314-13.403l-13.371,13.403l-13.257-13.403l-13.372,13.403l-13.371-13.403
		L0,1247.874v-11.656l13.314-13.401l13.371,13.401l13.372-13.401l13.257,13.401l13.371-13.401L80,1236.218z M80,1265.356v8.565
		c-0.076,2.876-0.724,5.188-1.943,6.938l-11.313-11.425l-13.372,13.405l-13.258-13.404l-13.371,13.404l-13.371-13.404L2,1280.918
		c-1.257-1.748-1.924-4.08-2-6.994v-8.565l11.657-11.714l1.657-1.689l13.371,13.403l13.372-13.403l13.257,13.403l13.371-13.403
		L80,1265.356z M0,1265.356h0.057H0z"/>
	<path fill="#C99869" d="M80,1247.874v17.482l-13.314-13.403l-13.371,13.403l-13.257-13.403l-13.372,13.403l-13.371-13.403
		l-1.657,1.688l-11.601,11.715L0,1247.874l13.314-13.403l13.371,13.403l13.372-13.403l13.257,13.403l13.371-13.403L80,1247.874z
		 M0.057,1265.356H0H0.057z M78.057,1280.859l-1.429,1.515c-1.829,1.478-4.38,2.215-7.658,2.215H11.029
		c-3.277,0-5.829-0.737-7.657-2.215L2,1280.918l11.372-11.479l13.371,13.402l13.371-13.402l13.258,13.402l13.372-13.402
		L78.057,1280.859z"/>
</g>
<g>
	<path fill="#93DB24" d="M159.944,1214.243v1.747c-0.189-7.106-3.865-10.661-11.025-10.661H90.998
		c-7.161,0-10.836,3.555-11.025,10.661v-1.747c0-7.495,3.676-11.243,11.025-11.243h57.921
		C156.269,1203,159.944,1206.748,159.944,1214.243z"/>
	<path fill="#80BE1F" d="M79.972,1215.99c0.189-7.106,3.865-10.661,11.025-10.661h57.921c7.161,0,10.836,3.555,11.025,10.661v14.391
		l-13.31-13.396l-13.367,13.396l-13.253-13.396l-13.367,13.396l-13.366-13.397l-13.31,13.396v-14.39H79.972z"/>
	<path fill="#BB8044" d="M159.944,1230.381v5.825l-13.31-13.398l-13.367,13.398l-13.253-13.398l-13.367,13.398l-13.366-13.398
		l-13.31,13.398v-5.825l13.31-13.396l13.366,13.396l13.367-13.396l13.253,13.396l13.367-13.396L159.944,1230.381z"/>
	<path fill="#C58F5C" d="M159.944,1236.206v11.651l-13.31-13.398l-13.367,13.398l-13.253-13.398l-13.367,13.398l-13.366-13.398
		l-13.31,13.398v-11.651l13.31-13.398l13.366,13.398l13.367-13.398l13.253,13.398l13.367-13.398L159.944,1236.206z
		 M159.944,1265.335v8.564c-0.076,2.874-0.723,5.184-1.942,6.933l-11.31-11.419l-13.367,13.4l-13.253-13.4l-13.367,13.4
		l-13.366-13.4l-11.368,11.478c-1.256-1.748-1.923-4.076-2-6.989v-8.564l11.653-11.71l1.657-1.688l13.366,13.396l13.367-13.396
		l13.253,13.396l13.367-13.396L159.944,1265.335z M79.972,1265.335h0.057H79.972z"/>
	<path fill="#C99869" d="M159.944,1247.857v17.478l-13.31-13.396l-13.367,13.396l-13.253-13.396l-13.367,13.396l-13.366-13.396
		l-1.657,1.688l-11.597,11.71l-0.057-17.478l13.31-13.398l13.366,13.398l13.367-13.398l13.253,13.398l13.367-13.398
		L159.944,1247.857z M80.029,1265.335h-0.057H80.029z M158.002,1280.832l-1.428,1.514c-1.828,1.479-4.378,2.215-7.655,2.215H90.998
		c-3.276,0-5.827-0.735-7.654-2.215l-1.372-1.455l11.368-11.478l13.366,13.399l13.367-13.399l13.253,13.399l13.367-13.399
		L158.002,1280.832z"/>
</g>
<g>
	<path fill="#93DB24" d="M239.917,1214.243v1.747c-0.189-7.106-3.865-10.661-11.025-10.661H170.97
		c-7.16,0-10.836,3.555-11.025,10.661v-1.747c0-7.495,3.676-11.243,11.025-11.243h57.921
		C236.241,1203,239.917,1206.748,239.917,1214.243z"/>
	<path fill="#80BE1F" d="M159.944,1215.99c0.189-7.106,3.865-10.661,11.025-10.661h57.921c7.161,0,10.836,3.555,11.025,10.661
		v14.391l-13.31-13.396l-13.367,13.396l-13.253-13.396l-13.367,13.396l-13.366-13.396l-13.31,13.396v-14.391H159.944z"/>
	<path fill="#BB8044" d="M239.917,1230.381v5.825l-13.31-13.398l-13.367,13.398l-13.253-13.398l-13.367,13.398l-13.366-13.398
		l-13.31,13.398v-5.825l13.31-13.396l13.366,13.396l13.367-13.396l13.253,13.396l13.367-13.396L239.917,1230.381z"/>
	<path fill="#C58F5C" d="M239.917,1236.206v11.651l-13.31-13.398l-13.367,13.398l-13.253-13.398l-13.367,13.398l-13.366-13.398
		l-13.31,13.398v-11.651l13.31-13.398l13.366,13.398l13.367-13.398l13.253,13.398l13.367-13.398L239.917,1236.206z
		 M239.917,1265.335v8.564c-0.076,2.874-0.723,5.184-1.942,6.933l-11.31-11.419l-13.367,13.4l-13.253-13.4l-13.367,13.4
		l-13.366-13.4l-11.368,11.478c-1.256-1.748-1.923-4.076-2-6.989v-8.564l11.653-11.71l1.657-1.688l13.366,13.396l13.367-13.396
		l13.253,13.396l13.367-13.396L239.917,1265.335z M159.944,1265.335h0.057H159.944z"/>
	<path fill="#C99869" d="M239.917,1247.857v17.478l-13.31-13.396l-13.367,13.396l-13.253-13.396l-13.367,13.396l-13.366-13.396
		l-1.657,1.688L160,1265.335l-0.057-17.478l13.31-13.398l13.366,13.398l13.367-13.398l13.253,13.398l13.367-13.398L239.917,1247.857
		z M160.001,1265.335h-0.057H160.001z M237.974,1280.832l-1.428,1.514c-1.828,1.479-4.378,2.215-7.655,2.215H170.97
		c-3.276,0-5.827-0.735-7.654-2.215l-1.372-1.455l11.368-11.478l13.366,13.399l13.367-13.399l13.253,13.399l13.367-13.399
		L237.974,1280.832z"/>
</g>
<g>
	<path fill="#93DB24" d="M319.889,1214.243v1.747c-0.188-7.106-3.863-10.661-11.024-10.661h-57.921
		c-7.161,0-10.836,3.555-11.026,10.661v-1.747c0-7.495,3.676-11.243,11.026-11.243h57.921
		C316.213,1203,319.889,1206.748,319.889,1214.243z"/>
	<path fill="#80BE1F" d="M239.917,1215.99c0.189-7.106,3.865-10.661,11.026-10.661h57.921c7.161,0,10.836,3.555,11.024,10.661
		v14.391l-13.31-13.396l-13.366,13.396l-13.253-13.396l-13.367,13.396l-13.366-13.396l-13.31,13.396V1215.99L239.917,1215.99z"/>
	<path fill="#BB8044" d="M319.889,1230.381v5.825l-13.31-13.398l-13.366,13.398l-13.253-13.398l-13.367,13.398l-13.366-13.398
		l-13.31,13.398v-5.825l13.31-13.396l13.366,13.396l13.367-13.396l13.253,13.396l13.366-13.396L319.889,1230.381z"/>
	<path fill="#C58F5C" d="M319.889,1236.206v11.651l-13.31-13.398l-13.366,13.398l-13.253-13.398l-13.367,13.398l-13.366-13.398
		l-13.31,13.398v-11.651l13.31-13.398l13.366,13.398l13.367-13.398l13.253,13.398l13.366-13.398L319.889,1236.206z
		 M319.889,1265.335v8.564c-0.074,2.874-0.724,5.184-1.941,6.933l-11.312-11.419l-13.367,13.4l-13.253-13.4l-13.367,13.4
		l-13.366-13.4l-11.368,11.478c-1.256-1.748-1.923-4.076-2-6.989v-8.564l11.653-11.71l1.657-1.688l13.366,13.396l13.367-13.396
		l13.253,13.396l13.366-13.396L319.889,1265.335z M239.917,1265.335h0.057H239.917z"/>
	<path fill="#C99869" d="M319.889,1247.857v17.478l-13.31-13.396l-13.366,13.396l-13.253-13.396l-13.367,13.396l-13.366-13.396
		l-1.657,1.688l-11.597,11.71l-0.057-17.478l13.31-13.398l13.366,13.398l13.367-13.398l13.253,13.398l13.366-13.398
		L319.889,1247.857z M239.973,1265.335h-0.057H239.973z M317.946,1280.832l-1.43,1.514c-1.826,1.479-4.378,2.215-7.653,2.215
		h-57.921c-3.276,0-5.827-0.735-7.655-2.215l-1.372-1.455l11.368-11.478l13.366,13.399l13.367-13.399l13.253,13.399l13.367-13.399
		L317.946,1280.832z"/>
</g>
<g>
	<path fill="#93DB24" d="M399.861,1214.243v1.747c-0.189-7.106-3.865-10.661-11.025-10.661h-57.921
		c-7.161,0-10.836,3.555-11.025,10.661v-1.747c0-7.495,3.677-11.243,11.025-11.243h57.921
		C396.186,1203,399.861,1206.748,399.861,1214.243z"/>
	<path fill="#80BE1F" d="M319.889,1215.99c0.189-7.106,3.865-10.661,11.025-10.661h57.921c7.16,0,10.836,3.555,11.025,10.661v14.391
		l-13.312-13.396l-13.367,13.396l-13.253-13.396l-13.364,13.396l-13.367-13.396l-13.312,13.396v-14.391H319.889z"/>
	<path fill="#BB8044" d="M399.861,1230.381v5.825l-13.312-13.398l-13.367,13.398l-13.253-13.398l-13.364,13.398l-13.367-13.398
		l-13.312,13.398v-5.825l13.312-13.396l13.367,13.396l13.364-13.396l13.253,13.396l13.367-13.396L399.861,1230.381z"/>
	<path fill="#C58F5C" d="M399.861,1236.206v11.651l-13.312-13.398l-13.367,13.398l-13.253-13.398l-13.364,13.398l-13.367-13.398
		l-13.312,13.398v-11.651l13.312-13.398l13.367,13.398l13.364-13.398l13.253,13.398l13.367-13.398L399.861,1236.206z
		 M399.861,1265.335v8.564c-0.076,2.874-0.726,5.184-1.942,6.933l-11.31-11.419l-13.367,13.4l-13.253-13.4l-13.366,13.4
		l-13.367-13.4l-11.368,11.478c-1.256-1.748-1.923-4.076-1.999-6.989v-8.564l11.653-11.71l1.657-1.688l13.367,13.396l13.364-13.396
		l13.253,13.396l13.367-13.396L399.861,1265.335z M319.889,1265.335h0.058H319.889z"/>
	<path fill="#C99869" d="M399.861,1247.857v17.478l-13.312-13.396l-13.367,13.396l-13.253-13.396l-13.364,13.396l-13.367-13.396
		l-1.657,1.688l-11.597,11.71l-0.058-17.478l13.312-13.398l13.367,13.398l13.364-13.398l13.253,13.398l13.367-13.398
		L399.861,1247.857z M319.945,1265.335h-0.058H319.945z M397.919,1280.832l-1.429,1.514c-1.827,1.479-4.378,2.215-7.654,2.215
		h-57.921c-3.276,0-5.827-0.735-7.655-2.215l-1.372-1.455l11.368-11.478l13.367,13.399l13.366-13.399l13.253,13.399l13.367-13.399
		L397.919,1280.832z"/>
</g>
<g>
	<path fill="#93DB24" d="M479.833,1214.243v1.747c-0.189-7.106-3.864-10.661-11.025-10.661h-57.921
		c-7.161,0-10.836,3.555-11.023,10.661v-1.747c0-7.495,3.676-11.243,11.023-11.243h57.921
		C476.158,1203,479.833,1206.748,479.833,1214.243z"/>
	<path fill="#80BE1F" d="M399.861,1215.99c0.188-7.106,3.862-10.661,11.023-10.661h57.921c7.161,0,10.836,3.555,11.025,10.661
		v14.391l-13.312-13.396l-13.364,13.396l-13.253-13.396l-13.367,13.396l-13.366-13.396l-13.31,13.396L399.861,1215.99
		L399.861,1215.99z"/>
	<path fill="#BB8044" d="M479.833,1230.381v5.825l-13.31-13.398l-13.366,13.398l-13.253-13.398l-13.367,13.398l-13.366-13.398
		l-13.31,13.398v-5.825l13.31-13.396l13.366,13.396l13.367-13.396l13.253,13.396l13.366-13.396L479.833,1230.381z"/>
	<path fill="#C58F5C" d="M479.833,1236.206v11.651l-13.31-13.398l-13.366,13.398l-13.253-13.398l-13.367,13.398l-13.366-13.398
		l-13.31,13.398v-11.651l13.31-13.398l13.366,13.398l13.367-13.398l13.253,13.398l13.366-13.398L479.833,1236.206z
		 M479.833,1265.335v8.564c-0.076,2.874-0.723,5.184-1.942,6.933l-11.31-11.419l-13.366,13.4l-13.253-13.4l-13.367,13.4
		l-13.364-13.4l-11.368,11.478c-1.256-1.748-1.923-4.076-1.999-6.989v-8.564l11.651-11.71l1.656-1.688l13.366,13.396l13.367-13.396
		l13.253,13.396l13.366-13.396L479.833,1265.335z M399.861,1265.335h0.057H399.861z"/>
	<path fill="#C99869" d="M479.833,1247.857v17.478l-13.31-13.396l-13.366,13.396l-13.253-13.396l-13.367,13.396l-13.366-13.396
		l-1.656,1.688l-11.597,11.71l-0.057-17.478l13.31-13.398l13.366,13.398l13.367-13.398l13.253,13.398l13.366-13.398
		L479.833,1247.857z M399.918,1265.335h-0.057H399.918z M477.891,1280.832l-1.428,1.514c-1.828,1.479-4.379,2.215-7.655,2.215
		h-57.921c-3.274,0-5.827-0.735-7.652-2.215l-1.372-1.455l11.366-11.478l13.366,13.399l13.367-13.399l13.253,13.399l13.366-13.399
		L477.891,1280.832z"/>
</g>
<g>
	<path fill="#93DB24" d="M559.806,1214.243v1.747c-0.188-7.106-3.863-10.661-11.023-10.661H490.86
		c-7.161,0-10.837,3.555-11.026,10.661v-1.747c0-7.495,3.676-11.243,11.026-11.243h57.921
		C556.13,1203,559.806,1206.748,559.806,1214.243z"/>
	<path fill="#80BE1F" d="M479.833,1215.99c0.189-7.106,3.865-10.661,11.026-10.661h57.921c7.16,0,10.836,3.555,11.023,10.661v14.391
		l-13.31-13.396l-13.367,13.396l-13.253-13.396l-13.366,13.396l-13.366-13.396l-13.311,13.396L479.833,1215.99L479.833,1215.99z"/>
	<path fill="#BB8044" d="M559.806,1230.381v5.825l-13.31-13.398l-13.367,13.398l-13.253-13.398l-13.366,13.398l-13.364-13.398
		l-13.313,13.398v-5.825l13.313-13.396l13.364,13.396l13.366-13.396l13.253,13.396l13.367-13.396L559.806,1230.381z"/>
	<path fill="#C58F5C" d="M559.806,1236.206v11.651l-13.31-13.398l-13.367,13.398l-13.253-13.398l-13.366,13.398l-13.364-13.398
		l-13.313,13.398v-11.651l13.313-13.398l13.364,13.398l13.366-13.398l13.253,13.398l13.367-13.398L559.806,1236.206z
		 M559.806,1265.335v8.564c-0.074,2.874-0.724,5.184-1.94,6.933l-11.312-11.419l-13.365,13.4l-13.255-13.4l-13.364,13.4
		l-13.366-13.4l-11.368,11.478c-1.257-1.748-1.924-4.076-2-6.989v-8.564l11.653-11.71l1.656-1.688l13.365,13.396l13.366-13.396
		l13.253,13.396l13.367-13.396L559.806,1265.335z M479.833,1265.335h0.057H479.833z"/>
	<path fill="#C99869" d="M559.806,1247.857v17.478l-13.31-13.396l-13.367,13.396l-13.253-13.396l-13.366,13.396l-13.364-13.396
		l-1.657,1.688l-11.599,11.71l-0.057-17.478l13.312-13.398l13.365,13.398l13.366-13.398l13.253,13.398l13.367-13.398
		L559.806,1247.857z M479.89,1265.335h-0.057H479.89z M557.863,1280.832l-1.431,1.514c-1.825,1.479-4.378,2.215-7.652,2.215h-57.921
		c-3.276,0-5.827-0.735-7.655-2.215l-1.371-1.455l11.368-11.478l13.366,13.399l13.364-13.399l13.253,13.399l13.367-13.399
		L557.863,1280.832z"/>
</g>
<g>
	<path fill="#93DB24" d="M639.778,1214.243v1.747c-0.189-7.106-3.865-10.661-11.026-10.661h-57.921
		c-7.16,0-10.836,3.555-11.025,10.661v-1.747c0-7.495,3.678-11.243,11.025-11.243h57.921
		C636.104,1203,639.778,1206.748,639.778,1214.243z"/>
	<path fill="#80BE1F" d="M559.806,1215.99c0.189-7.106,3.865-10.661,11.025-10.661h57.921c7.161,0,10.837,3.555,11.026,10.661
		v14.391l-13.313-13.396l-13.364,13.396l-13.255-13.396l-13.364,13.396l-13.367-13.396l-13.312,13.396L559.806,1215.99
		L559.806,1215.99z"/>
	<path fill="#BB8044" d="M639.778,1230.381v5.825l-13.313-13.398l-13.366,13.398l-13.253-13.398l-13.364,13.398l-13.367-13.398
		l-13.312,13.398v-5.825l13.312-13.396l13.367,13.396l13.364-13.396l13.253,13.396l13.366-13.396L639.778,1230.381z"/>
	<path fill="#C58F5C" d="M639.778,1236.206v11.651l-13.313-13.398l-13.366,13.398l-13.253-13.398l-13.364,13.398l-13.367-13.398
		l-13.312,13.398v-11.651l13.312-13.398l13.367,13.398l13.364-13.398l13.253,13.398l13.366-13.398L639.778,1236.206z
		 M639.778,1265.335v8.564c-0.076,2.874-0.726,5.184-1.943,6.933l-11.31-11.419l-13.366,13.4l-13.253-13.4l-13.367,13.4
		l-13.366-13.4l-11.368,11.478c-1.256-1.748-1.923-4.076-1.999-6.989v-8.564l11.653-11.71l1.656-1.688l13.367,13.396l13.364-13.396
		l13.253,13.396l13.366-13.396L639.778,1265.335z M559.806,1265.335h0.059H559.806z"/>
	<path fill="#C99869" d="M639.778,1247.857v17.478l-13.313-13.396l-13.366,13.396l-13.253-13.396l-13.364,13.396l-13.367-13.396
		l-1.656,1.688l-11.597,11.71l-0.059-17.478l13.312-13.398l13.367,13.398l13.364-13.398l13.253,13.398l13.366-13.398
		L639.778,1247.857z M559.862,1265.335h-0.059H559.862z M637.835,1280.832l-1.428,1.514c-1.828,1.479-4.379,2.215-7.655,2.215
		h-57.921c-3.276,0-5.827-0.735-7.654-2.215l-1.372-1.455l11.368-11.478l13.366,13.399l13.367-13.399l13.253,13.399l13.366-13.399
		L637.835,1280.832z"/>
</g>
<g>
	<path fill="#93DB24" d="M719.75,1214.243v1.747c-0.189-7.106-3.865-10.661-11.025-10.661h-57.921
		c-7.161,0-10.837,3.555-11.023,10.661v-1.747c0-7.495,3.675-11.243,11.023-11.243h57.921
		C716.074,1203,719.75,1206.748,719.75,1214.243z"/>
	<path fill="#80BE1F" d="M639.778,1215.99c0.188-7.106,3.862-10.661,11.023-10.661h57.921c7.16,0,10.837,3.555,11.025,10.661v14.391
		l-13.31-13.396l-13.366,13.396l-13.254-13.396l-13.366,13.396l-13.366-13.396l-13.31,13.396L639.778,1215.99L639.778,1215.99z"/>
	<path fill="#BB8044" d="M719.75,1230.381v5.825l-13.31-13.398l-13.366,13.398l-13.254-13.398l-13.366,13.398l-13.366-13.398
		l-13.31,13.398v-5.825l13.31-13.396l13.366,13.396l13.366-13.396l13.254,13.396l13.366-13.396L719.75,1230.381z"/>
	<path fill="#C58F5C" d="M719.75,1236.206v11.651l-13.31-13.398l-13.366,13.398l-13.254-13.398l-13.366,13.398l-13.366-13.398
		l-13.31,13.398v-11.651l13.31-13.398l13.366,13.398l13.366-13.398l13.254,13.398l13.366-13.398L719.75,1236.206z M719.75,1265.335
		v8.564c-0.076,2.874-0.724,5.184-1.942,6.933l-11.31-11.419l-13.366,13.4l-13.254-13.4l-13.366,13.4l-13.366-13.4l-11.366,11.478
		c-1.259-1.748-1.926-4.076-1.999-6.989v-8.564l11.65-11.71l1.657-1.688l13.366,13.396l13.366-13.396l13.254,13.396l13.364-13.396
		L719.75,1265.335z M639.778,1265.335h0.056H639.778z"/>
	<path fill="#C99869" d="M719.75,1247.857v17.478l-13.31-13.396l-13.366,13.396l-13.254-13.396l-13.366,13.396l-13.366-13.396
		l-1.657,1.688l-11.597,11.71l-0.056-17.478l13.31-13.398l13.366,13.398l13.366-13.398l13.254,13.398l13.366-13.398L719.75,1247.857
		z M639.834,1265.335h-0.056H639.834z M717.808,1280.832l-1.429,1.514c-1.827,1.479-4.378,2.215-7.654,2.215h-57.921
		c-3.274,0-5.827-0.735-7.655-2.215l-1.369-1.455l11.366-11.478l13.366,13.399l13.366-13.399l13.254,13.399l13.366-13.399
		L717.808,1280.832z"/>
</g>
<path fill="#80BE1F" d="M272.2,1191.4c2.866-2.469,6.8-3.519,11.8-3.15c-4.1,4.3-6.65,10.017-7.65,17.15h-20.4
	c-1.667-6.567-3.934-12.034-6.8-16.4c5.033,0.934,8.35,3.15,9.949,6.65c4.101-10.7,4.483-20.734,1.15-30.103
	C267.85,1173.117,271.833,1181.733,272.2,1191.4z"/>
<path fill="#7AB71E" d="M404.973,1204.1c0.27-3.731,1.75-6.981,4.451-9.75c3-3.031,6.602-4.55,10.799-4.55l4.15,0.55
	c0.734-1.064,1.566-2.083,2.5-3.05c3.801-3.867,8.367-5.8,13.699-5.8c5.367,0,9.934,1.933,13.701,5.8
	c2.031,2.066,3.531,4.366,4.5,6.899l2.85-0.3c3.666,0,6.801,1.314,9.4,3.948c2,2.066,3.23,4.45,3.697,7.15h-69.648L404.973,1204.1z"
	/>
<path fill="#80BE1F" d="M676.325,1191.4c2.866-2.469,6.8-3.519,11.8-3.15c-4.1,4.3-6.65,10.017-7.65,17.15h-20.397
	c-1.667-6.567-3.936-12.034-6.8-16.4c5.031,0.934,8.35,3.15,9.947,6.65c4.103-10.7,4.483-20.734,1.15-30.103
	C671.975,1173.117,675.958,1181.733,676.325,1191.4z"/>
</svg>
